HIERARCHY
ROOT Hips
{
  OFFSET -331.093 83.8371 -317.828
  CHANNELS 6 Xposition Yposition Zposition Zrotation Xrotation Yrotation
  JOINT LeftUpLeg
  {
    OFFSET 8.64259 1.95398 -2.38835
    CHANNELS 3 Zrotation Xrotation Yrotation
    JOINT LeftLeg
    {
      OFFSET 43.7702 0 0
      CHANNELS 3 Zrotation Xrotation Yrotation
      JOINT LeftFoot
      {
        OFFSET 40.6238 0 0
        CHANNELS 3 Zrotation Xrotation Yrotation
        JOINT LeftToeBase
        {
          OFFSET 12.7242 0 0
          CHANNELS 3 Zrotation Xrotation Yrotation
          End Site
          {
            OFFSET 0 0 0
          }
        }
      }
    }
  }
  JOINT RightUpLeg
  {
    OFFSET -8.2249 1.95398 -2.59336
    CHANNELS 3 Zrotation Xrotation Yrotation
    JOINT RightLeg
    {
      OFFSET 43.5653 0 0
      CHANNELS 3 Zrotation Xrotation Yrotation
      JOINT RightFoot
      {
        OFFSET 40.6238 0 0
        CHANNELS 3 Zrotation Xrotation Yrotation
        JOINT RightToeBase
        {
          OFFSET 12.7242 0 0
          CHANNELS 3 Zrotation Xrotation Yrotation
          End Site
          {
            OFFSET 0 0 0
          }
        }
      }
    }
  }
  JOINT Spine
  {
    OFFSET 0.165834 0.87714 6.61349
    CHANNELS 3 Zrotation Xrotation Yrotation
    JOINT Spine1
    {
      OFFSET 7.38963 1.71661e-005 0
      CHANNELS 3 Zrotation Xrotation Yrotation
      JOINT Spine2
      {
        OFFSET 11.9445 1.14441e-005 0
        CHANNELS 3 Zrotation Xrotation Yrotation
        JOINT Spine3
        {
          OFFSET 14.7254 4.19617e-005 0
          CHANNELS 3 Zrotation Xrotation Yrotation
          JOINT Spine4
          {
            OFFSET 10.9679 0 0
            CHANNELS 3 Zrotation Xrotation Yrotation
            JOINT RightShoulder
            {
              OFFSET 2.46616 -1.6653 3.69651
              CHANNELS 3 Zrotation Xrotation Yrotation
              JOINT RightArm
              {
                OFFSET 13.0012 0 0
                CHANNELS 3 Zrotation Xrotation Yrotation
                JOINT RightForeArm
                {
                  OFFSET 28.7848 1.62311e-005 0
                  CHANNELS 3 Zrotation Xrotation Yrotation
                  JOINT RightHand
                  {
                    OFFSET 26.5688 1.62095e-005 0
                    CHANNELS 3 Zrotation Xrotation Yrotation
                    End Site
                    {
                      OFFSET 0 0 0
                    }
                  }
                }
              }
            }
            JOINT LeftShoulder
            {
              OFFSET 2.38034 -1.29275 -3.7523
              CHANNELS 3 Zrotation Xrotation Yrotation
              JOINT LeftArm
              {
                OFFSET 16.3182 6.07031e-005 0
                CHANNELS 3 Zrotation Xrotation Yrotation
                JOINT LeftForeArm
                {
                  OFFSET 27.0901 0 0
                  CHANNELS 3 Zrotation Xrotation Yrotation
                  JOINT LeftHand
                  {
                    OFFSET 24.5451 1.51738e-005 0
                    CHANNELS 3 Zrotation Xrotation Yrotation
                    End Site
                    {
                      OFFSET 0 0 0
                    }
                  }
                }
              }
            }
            JOINT Neck
            {
              OFFSET 5.0226 -0.0266342 0
              CHANNELS 3 Zrotation Xrotation Yrotation
              JOINT Head
              {
                OFFSET 6.69364 2.86102e-005 0
                CHANNELS 3 Zrotation Xrotation Yrotation
                End Site
                {
                  OFFSET 0 0 0
                }
              }
            }
          }
        }
      }
    }
  }
}
MOTION
Frames:	10
Frame Time:	0.0416667
-304.095 69.7978 -301.865 109.299 -58.2438 106.61 -173.253 -15.9563 78.9275 -83.1232 -47.3364 1.51218 -155.994 2.00819 -17.3993 -16.9301 -29.0919 -8.18384 -162.007 59.7446 91.789 -93.7675 -18.9859 3.12573 87.1758 -19.6036 -6.17955 18.9076 24.5576 165.44 1.83737 9.53287 -88.9451 7.77183 4.12769 1.86389 -3.89363 4.2057 1.68018 -26.4561 3.37682 3.01891 -6.44345 3.37679 3.01891 94.285 -59.9144 -92.4238 30.2375 -24.9212 43.5725 -69.335 66.9663 -91.1997 -10.7496 2.62015 -59.2602 -97.4064 -51.4 68.7545 -18.8728 12.8699 16.6194 12.0759 -7.95399 -94.2636 29.829 2.35112 4.0747 5.71704 -1.3119 -9.01837 -1.01955 0.448114 3.85561 
-303.787 70.4875 -301.352 106.764 -57.5913 101.89 -175.194 -17.2857 75.8591 -77.6399 -43.6604 2.09983 -157.904 7.92888 -19.7423 -18.1439 -28.7307 -11.4057 -159.457 57.966 87.5339 -95.7093 -19.2601 2.57237 90.4042 -20.5132 -5.91403 17.7413 16.4519 164.786 0.931841 10.1958 -88.749 6.45125 2.39266 2.37815 -5.21942 2.49498 2.27055 -27.7464 1.56766 2.98695 -7.73381 1.56764 2.98694 89.8265 -43.4831 -102.246 46.0571 -21.8823 43.1301 -124.812 40.8637 -45.915 -20.3644 4.23966 -49.9221 -94.4241 -45.9848 71.4629 -21.2561 2.77203 3.19736 10.0862 -6.64727 -99.7646 26.2659 2.02334 3.88423 6.04002 1.28655 -3.98719 3.88557 2.14226 2.31323 
-302.812 72.7811 -300.481 100.215 -55.7028 97.1818 -175.867 -20.4436 79.1284 -66.0366 -26.3753 1.00719 -158.737 22.2637 -28.3878 -19.6546 -27.9635 -16.1567 -161.764 55.2854 87.862 -95.4526 -19.012 2.73659 93.9485 -21.3818 -5.80836 8.78303 -27.7581 157.718 0.557225 9.69462 -89.0123 7.47057 1.54039 1.8768 -4.20067 1.62149 1.80721 -26.7286 0.905256 2.25283 -6.71591 0.90526 2.25282 90.1214 -44.0745 -101.685 48.5595 -23.2941 49.6346 -123.373 26.4622 -57.1118 -37.2415 6.69562 -36.1365 -93.353 -45.6777 73.013 -22.9548 3.50073 1.60056 15.1378 -8.8509 -105.36 30.0635 2.76361 5.41708 5.32154 1.48642 -3.80486 2.35236 2.27995 3.16605 
-301.012 77.6411 -298.579 90.6224 -51.3373 90.0828 -175.506 -27.0654 85.0519 -41.4131 1.7239 -0.570159 -164.899 43.5197 -39.743 -18.3496 -26.02 -20.2082 -166.983 53.5197 89.2743 -90.6068 -15.0804 2.52025 89.1184 -19.4415 -6.34079 -127.665 -31.7845 14.2426 -0.0957073 8.97214 -89.2294 8.92462 0.152432 1.51197 -2.7472 0.218829 1.50379 -25.2753 -0.308977 1.48789 -5.26267 -0.308948 1.48789 89.5513 -44.2407 -102.57 49.2502 -20.9594 53.8258 -134.005 -6.73574 -79.5346 -60.5912 -2.68838 -6.77052 -92.6499 -44.5453 73.7768 -24.4996 1.9206 3.1749 16.0025 -11.0305 -112.859 29.6572 2.85122 5.85368 3.15762 2.08052 -4.04116 3.04269 2.90359 4.32707 
-299.291 83.1535 -296.194 80.3031 -44.1922 82.5415 -174.201 -35.4626 90.0491 -8.24289 22.5248 -0.730803 153.4 62.0412 -18.9548 -5.46175 -19.8855 -20.8894 -173.144 57.8246 90.0238 -81.6724 -7.95582 2.44024 73.9909 -13.2291 -6.51298 25.0131 -1.56719 -19.0147 -0.942686 8.14297 -89.5142 10.5959 -1.65409 1.11489 -1.07458 -1.6034 1.18661 -23.6169 -1.91265 0.566107 -3.60425 -1.91267 0.566111 89.9326 -43.152 -102.244 50.0177 -19.2304 55.1859 -149.971 -15.8748 -104.841 -74.8538 -17.0253 12.9481 -92.3564 -44.3963 74.1938 -25.1707 2.18355 4.55787 15.9267 -13.0973 -118.873 29.5788 2.83252 5.81524 2.59761 2.69141 -3.09043 3.21148 3.35169 4.6356 
-296.908 87.9668 -293.493 74.3986 -37.1758 79.5661 -173.368 -26.9806 92.5477 -14.7289 25.1438 0.633969 85.3688 35.799 20.5122 46.798 5.71316 -18.4988 -178.134 60.2302 89.8837 -64.6202 -0.92408 2.8806 64.6068 -8.72344 -5.37472 47.7439 -3.31553 -9.77621 -1.6266 7.54909 -89.9013 11.7854 -3.1887 0.530326 0.118198 -3.16227 0.670293 -22.4483 -3.20051 -0.453543 -2.43564 -3.2005 -0.453543 91.0067 -41.4336 -100.908 50.2682 -17.86 54.2873 -154.169 -17.6483 -111.729 -83.8237 -19.5513 12.2706 -92.8628 -44.796 73.5164 -24.5053 3.13189 6.00158 16.0765 -14.6494 -121.588 27.9352 2.78906 6.23497 3.29052 2.91902 -1.1335 2.71421 3.21442 3.89715 
-292.943 90.4452 -289.964 74.4641 -36.1815 78.2994 -174.247 -9.77092 91.5729 -42.8407 18.1572 1.26064 58.7816 -4.56623 6.46872 104.557 19.7214 -41.7172 -178.957 56.4954 88.6372 -52.0652 3.99017 1.67449 59.6894 -4.40754 -2.91898 48.3848 -3.40363 -10.2089 -1.72988 7.45221 -89.8413 11.9856 -3.36458 0.681882 0.31871 -3.33129 0.829453 -22.2514 -3.41379 -0.36204 -2.23878 -3.41379 -0.362039 91.1467 -41.6068 -100.626 48.9091 -16.3944 52.0075 -147.915 -19.5465 -109.199 -96.7517 -12.0904 0.860594 -92.7913 -44.3607 73.5012 -25.8025 6.94915 8.37473 13.7466 -14.3222 -120.493 30.6647 2.81662 5.41512 2.66036 2.85879 0.121876 2.46691 2.90571 3.05224 
-289.105 90.7014 -286.475 77.417 -37.1188 77.3431 -174.828 -8.39383 89.231 -47.4475 15.1001 0.723731 48.2853 -10.7658 -0.594354 116.594 16.0523 -50.1123 -179.953 51.1551 87.6028 -48.1301 5.08313 -0.0175752 57.2715 -1.2651 -0.854959 44.0139 -3.24322 -11.7642 -1.57426 7.56636 -89.5976 11.7585 -2.94195 1.11344 0.0903331 -2.89009 1.24191 -22.4716 -3.14045 0.176965 -2.45891 -3.14045 0.176953 91.1735 -42.8279 -100.27 45.3885 -15.0261 48.2936 -148.461 -19.7474 -111.803 -96.4943 -11.6124 -0.190896 -93.9145 -44.7707 71.8708 -27.1308 10.497 11.0931 14.3819 -14.0027 -115.033 37.218 3.55828 5.75903 -0.17939 2.04404 0.0979447 4.02357 2.22736 4.33826 
-284.28 90.8655 -281.307 77.2367 -41.5997 78.5083 -171.086 -1.47836 90.7695 -60.5106 13.5757 -0.148407 47.5623 -10.4132 -1.24782 119.956 17.064 -50.6152 179.25 44.7125 92.793 -46.4014 3.60135 -0.834617 63.0218 -2.48712 -1.5492 34.3575 -1.06996 -5.78661 -0.915248 7.64531 -89.8408 11.5882 -1.74614 0.497705 -0.0817075 -1.72253 0.574088 -22.6263 -1.81495 -0.0502617 -2.61365 -1.81496 -0.0502521 91.3776 -42.5732 -99.9927 42.8882 -15.0626 42.3319 -135.293 -23.2661 -107.399 -106.938 2.05366 -12.4993 -94.4316 -45.4629 71.2857 -29.4033 12.689 13.7083 11.707 -12.1049 -108.497 33.4785 2.15418 2.56149 -0.986537 1.91721 1.70155 4.8263 1.89499 3.87018 
-279.048 90.3605 -275.722 77.3962 -44.4161 80.8894 -168.389 8.25443 93.3696 -75.816 13.536 0.634426 47.7899 -9.6661 -2.03251 119.294 19.1692 -48.8288 178.536 39.9332 97.448 -49.1052 4.51477 -1.22319 69.8845 -4.26803 -2.48341 34.4205 -0.704559 -3.47408 -0.436356 7.84114 -90.3065 11.1897 -1.01092 -0.511203 -0.480957 -1.03245 -0.466215 -23.0176 -0.810557 -0.791404 -3.005 -0.810555 -0.791406 91.634 -40.8439 -99.9902 40.0412 -15.0816 34.4341 -137.338 -23.9853 -110.805 -103.852 -0.451375 -10.5276 -95.8596 -48.1107 69.9591 -29.8823 12.9516 15.5872 12.6893 -10.4545 -101.428 32.4141 2.26972 3.18378 -0.16054 2.02212 5.7327 5.57666 1.32701 1.97127 
